<?xml version="1.0" encoding="UTF-8" standalone="no"?>
<!DOCTYPE svg PUBLIC "-//W3C//DTD SVG 1.1//EN" "http://www.w3.org/Graphics/SVG/1.1/DTD/svg11.dtd">
<svg width="100%" height="100%" viewBox="0 0 1000 1000" version="1.1" xmlns="http://www.w3.org/2000/svg" xmlns:xlink="http://www.w3.org/1999/xlink" xml:space="preserve" xmlns:serif="http://www.serif.com/" style="fill-rule:evenodd;clip-rule:evenodd;stroke-linejoin:round;stroke-miterlimit:2;">
    <g transform="matrix(1.79515,-0.275393,0.275393,1.79515,-491.979951,20.43057)">
        <path d="M455.585,614.737C472.878,628.026 623.621,557.9 644.846,459.062C649.401,437.85 647.273,421.483 633.689,409.202C602.07,380.616 590.551,394.392 551.923,371.433C505.982,344.127 651.531,290.551 648.602,281.468C636.232,243.109 454.788,235.554 407.422,272.354C387.188,288.073 343.363,351.467 366.48,409.12C386.578,459.247 490.113,455.038 500,480.392C510.346,506.922 420.324,587.639 455.585,614.737Z" style="fill:rgb(254,214,92);"/>
    </g>
    <g transform="matrix(1.684366,0,0,1.678005,-402.270148,-87.172928)">
        <path d="M692.901,275.309C736.338,300.73 765.801,348.56 787.2,320.988C795.977,309.68 783.699,259.475 744.48,215.77C710.584,177.998 652.298,146.503 621.296,132.099C592.102,118.534 533.128,118.917 500,124.266C489.12,126.023 469.081,133.324 456.169,139.979C443.368,146.578 416.094,168.787 422.531,164.198C431.895,157.521 438.39,137.119 436.789,115.584C435.256,94.962 435.797,61.102 390.197,52.59C346.807,44.49 265.681,113.977 284.142,225.678C291.1,267.778 332.567,293.924 366.27,289.637C390.615,286.54 414.97,283.816 437.346,275.309C462.458,265.761 518.848,253.846 559.824,253.846C602.417,253.846 669.306,261.499 692.901,275.309Z" style="fill:rgb(218,2,125);"/>
    </g>
</svg>
